<?xml version="1.0" standalone="no"?>
<!DOCTYPE svg PUBLIC "-//W3C//DTD SVG 20010904//EN"
 "http://www.w3.org/TR/2001/REC-SVG-20010904/DTD/svg10.dtd">
<svg version="1.0" xmlns="http://www.w3.org/2000/svg"
 width="500.000000pt" height="500.000000pt" viewBox="0 0 500.000000 500.000000"
 preserveAspectRatio="xMidYMid meet">
<metadata>
Created by potrace 1.11, written by Peter Selinger 2001-2013
</metadata>
<g transform="translate(0.000000,500.000000) scale(0.100000,-0.100000)"
fill="#000000" stroke="none">
<path d="M0 2500 l0 -2500 2500 0 2500 0 0 2500 0 2500 -2500 0 -2500 0 0
-2500z m1838 438 c17 -17 17 -859 0 -876 -17 -17 -579 -17 -596 0 -17 17 -17
859 0 876 17 17 579 17 596 0z m437 -30 c4 -3 4 -16 0 -27 -5 -18 -16 -21 -83
-23 -101 -4 -104 -23 -8 -52 85 -26 112 -55 102 -110 -9 -49 -44 -66 -140 -66
-91 0 -106 5 -106 36 0 23 3 24 74 24 51 0 77 4 85 14 15 18 10 21 -73 46 -39
13 -71 29 -81 43 -23 33 -19 74 10 103 25 25 30 26 120 22 51 -1 96 -6 100
-10z m290 -13 c24 -23 25 -30 25 -140 l0 -115 -30 0 c-17 0 -33 6 -36 14 -5
12 -11 11 -37 -5 -42 -25 -97 -25 -131 2 -21 17 -26 29 -26 67 0 26 4 52 8 58
15 23 52 34 111 34 47 0 61 3 61 15 0 25 -37 37 -97 29 -58 -7 -73 1 -73 38 0
20 21 25 123 27 70 1 80 -1 102 -24z m329 6 c18 -19 18 -19 49 0 32 19 92 25
113 11 26 -17 34 -56 34 -161 l0 -111 -42 0 -43 0 3 71 c5 102 -3 139 -31 139
-13 0 -33 -7 -45 -16 -22 -15 -23 -22 -20 -105 l3 -89 -42 0 -43 0 0 100 c0
112 -6 122 -60 100 l-30 -12 0 -94 0 -94 -40 0 -40 0 0 135 0 135 35 0 c24 0
35 -5 35 -15 0 -19 3 -19 42 5 43 26 99 26 122 1z m476 4 c31 -16 55 -70 44
-101 -16 -45 -34 -54 -111 -54 -40 0 -73 -3 -73 -6 0 -3 5 -14 10 -25 9 -16
22 -19 85 -19 66 0 74 -2 80 -21 10 -32 -7 -41 -83 -47 -98 -7 -139 9 -163 62
-35 77 -19 174 34 206 39 24 135 27 177 5z m-960 -529 l0 -74 37 19 c49 25
107 25 133 -1 18 -18 20 -33 20 -140 l0 -120 -40 0 -40 0 0 93 c0 110 -6 122
-51 113 -54 -11 -59 -20 -59 -117 l0 -89 -40 0 -40 0 0 195 0 195 40 0 40 0 0
-74z m-162 -42 c16 -5 22 -14 22 -35 0 -29 -1 -29 -59 -29 -73 0 -91 -15 -91
-75 0 -60 18 -75 90 -75 51 0 60 -3 65 -21 11 -33 -10 -43 -88 -47 -58 -2 -78
1 -104 17 -71 45 -71 208 0 251 32 20 116 27 165 14z m649 -17 c15 -15 19 -39
21 -137 l4 -120 -36 0 c-25 0 -36 4 -36 15 0 19 -9 19 -32 -1 -10 -10 -40 -19
-67 -22 -43 -4 -53 -1 -75 21 -32 32 -35 93 -7 128 16 20 30 24 95 27 42 2 76
8 76 12 0 5 -7 16 -16 25 -13 13 -29 15 -85 9 l-69 -7 0 31 c0 37 12 41 127
39 64 -2 86 -6 100 -20z m342 -3 c18 -23 21 -41 21 -140 l0 -114 -45 0 -45 0
0 105 c0 116 -1 118 -69 94 l-31 -11 0 -94 0 -94 -40 0 -40 0 0 135 0 135 35
0 c24 0 35 -5 35 -15 0 -19 3 -19 42 5 49 30 111 27 137 -6z m289 20 c18 -5
22 -13 20 -33 -3 -24 -7 -26 -63 -29 -71 -3 -85 -16 -85 -78 0 -59 18 -74 90
-74 51 0 60 -3 65 -21 10 -32 -9 -43 -84 -47 -83 -5 -126 14 -147 63 -31 76
-8 185 46 212 26 13 119 17 158 7z m318 -27 c30 -35 32 -89 4 -117 -16 -16
-33 -20 -90 -20 -51 0 -70 -4 -70 -13 0 -27 25 -37 97 -37 71 0 73 -1 73 -25
0 -33 -31 -45 -113 -45 -72 0 -121 24 -138 68 -6 15 -9 57 -7 94 6 103 38 130
152 125 61 -2 71 -6 92 -30z m309 21 c4 -3 4 -16 0 -27 -5 -18 -16 -21 -83
-23 -101 -4 -104 -23 -8 -52 85 -26 112 -55 102 -110 -9 -49 -44 -66 -140 -66
-91 0 -106 5 -106 36 0 23 3 24 74 24 51 0 77 4 85 14 15 18 10 21 -73 46 -39
13 -71 29 -81 43 -23 33 -19 74 10 103 25 25 30 26 120 22 51 -1 96 -6 100
-10z"/>
<path d="M1618 2840 c-27 -27 -30 -36 -26 -75 5 -43 5 -44 -74 -122 -79 -78
-79 -78 -127 -75 -43 3 -50 1 -74 -28 -34 -39 -34 -80 -3 -117 20 -24 32 -28
75 -28 49 0 52 -2 126 -75 64 -63 75 -80 75 -108 0 -45 46 -92 90 -92 43 0 90
47 90 90 0 22 -9 41 -29 61 -32 31 -64 36 -106 17 -24 -11 -30 -8 -98 60 l-73
73 2 60 1 61 78 78 c78 79 79 79 121 73 38 -5 46 -2 73 25 41 41 42 83 2 123
-40 40 -82 39 -123 -1z"/>
<path d="M2414 2746 c-12 -32 1 -51 34 -49 39 1 62 18 62 44 0 16 -8 19 -45
19 -31 0 -47 -5 -51 -14z"/>
<path d="M3241 2841 c-19 -35 -13 -41 40 -41 49 0 50 1 47 28 -3 23 -8 27 -40
30 -28 2 -39 -1 -47 -17z"/>
<path d="M2741 2161 c-15 -27 9 -56 40 -48 71 18 78 67 10 67 -29 0 -43 -5
-50 -19z"/>
<path d="M3702 2268 c-7 -7 -12 -20 -12 -30 0 -15 8 -18 45 -18 49 0 67 18 45
45 -15 18 -61 20 -78 3z"/>
</g>
</svg>
